<svg width="199" height="19" viewBox="0 0 199 19" fill="none" xmlns="http://www.w3.org/2000/svg">
<path d="M16.645 18.3346H11.0597C11.0597 18.3346 10.9487 18.3346 10.9117 18.2237L10.2829 15.5992H5.95524C5.65933 17.1518 5.40041 18.2237 5.40041 18.2237C5.36342 18.3346 5.21547 18.3346 5.21547 18.3346H0.0740154C0.0740154 18.3346 -0.0369512 18.3346 0.0370265 18.2237C0.0370265 18.2237 4.29074 4.99027 4.29074 4.95331C5.28944 2.36576 3.95784 2.32879 4.17978 1.73735C4.51268 0.776264 6.28814 0.0369644 7.69372 0.0369644C9.50617 0.0369644 11.3186 1.21984 12.2803 3.91829C13.316 6.83852 16.756 18.2237 16.756 18.2237C16.756 18.3346 16.645 18.3346 16.645 18.3346ZM9.50617 12.2724L8.06361 5.13813C7.61974 6.94942 7.1019 10.0545 6.62104 12.2724H9.50617Z" fill="#202020"/>
<path d="M59.8479 11.0895C59.8479 13.3444 58.8492 18.8521 53.153 18.8521H53.005C50.0829 18.8521 47.0498 17.2257 47.0498 13.3813H47.0868V13.3444V6.06225C47.0868 5.95136 47.1978 5.95136 47.1978 5.95136H51.9693C51.9693 5.95136 52.0803 5.98832 52.0803 6.09922V13.677C52.0803 15.2665 52.2652 16.0428 53.079 16.0428C54.1147 16.0428 55.2243 14.9708 55.2243 12.1615C55.2243 7.76264 53.079 7.68871 53.079 7.1712C53.079 6.69066 54.2626 5.43385 56.0751 5.43385C57.9615 5.39688 59.8479 6.87548 59.8479 11.0895Z" fill="#202020"/>
<path d="M73.7188 14.8969C73.4599 15.9319 71.3885 18.8521 67.8006 18.8521C64.0647 18.8521 61.1056 15.858 61.1056 12.1245C61.1056 8.53891 63.8798 5.43385 68.1335 5.43385C72.1653 5.43385 73.9407 7.98444 73.9407 9.72179C73.9407 13.6031 69.4281 14.0467 66.2101 13.5292C67.0608 16.0058 70.3528 16.2276 73.3489 14.5642C73.4599 14.4903 73.5708 14.4533 73.6818 14.5272C73.7188 14.5642 73.7928 14.6751 73.7188 14.8969ZM65.9881 11.3113C68.1705 11.4961 69.2801 10.6829 69.2801 9.35214C69.2801 8.68677 68.7253 8.1323 67.9855 8.16926C67.9855 8.16926 67.9855 8.20623 67.9485 8.20623H67.8746C67.6896 8.24319 67.4677 8.31712 67.2827 8.42802C66.432 8.94553 66.0621 10.1284 65.9881 11.3113Z" fill="#202020"/>
<path d="M111.891 0.628403H116.811C116.811 0.628403 116.922 0.628403 116.922 0.739298C116.922 0.739298 116.959 11.6809 116.959 13.3813C116.959 17.2996 118.623 16.4494 118.401 17.1148C118.142 17.891 116.589 18.8521 115.22 18.8521C113.223 18.8521 111.78 17.4105 111.78 15.1187V0.739298C111.743 0.628403 111.891 0.628403 111.891 0.628403Z" fill="#202020"/>
<path d="M119.4 0.628403H124.32C124.32 0.628403 124.431 0.628403 124.431 0.739298C124.431 0.739298 124.468 11.6809 124.468 13.3813C124.468 17.2996 126.132 16.4494 125.91 17.1148C125.651 17.891 124.098 18.8521 122.729 18.8521C120.732 18.8521 119.289 17.4105 119.289 15.1187V0.739298C119.289 0.628403 119.4 0.628403 119.4 0.628403Z" fill="#202020"/>
<path d="M138.486 14.8969C138.227 15.9319 136.156 18.8521 132.568 18.8521C128.832 18.8521 125.873 15.858 125.873 12.1245C125.873 8.53891 128.647 5.43385 132.901 5.43385C136.933 5.43385 138.708 7.98444 138.708 9.72179C138.708 13.6031 134.196 14.0467 130.978 13.5292C131.828 16.0058 135.12 16.2276 138.116 14.5642C138.227 14.4903 138.338 14.4533 138.449 14.5272C138.523 14.5642 138.56 14.6751 138.486 14.8969ZM130.756 11.3113C132.938 11.4961 134.048 10.6829 134.048 9.35214C134.048 8.68677 133.493 8.1323 132.753 8.16926C132.753 8.16926 132.753 8.20623 132.716 8.20623H132.642C132.457 8.24319 132.235 8.31712 132.05 8.42802C131.236 8.94553 130.867 10.1284 130.756 11.3113Z" fill="#202020"/>
<path d="M182.762 11.0895C182.762 13.3444 181.763 18.8521 176.067 18.8521H175.919C172.997 18.8521 170.001 17.2257 170.001 13.3813H170.038V13.3444V6.06225C170.038 5.95136 170.149 5.95136 170.149 5.95136H174.92C174.92 5.95136 175.031 5.98832 175.031 6.09922V13.677C175.031 15.2665 175.216 16.0428 176.03 16.0428C177.066 16.0428 178.175 14.9708 178.175 12.1615C178.175 7.76264 176.03 7.68871 176.03 7.1712C176.03 6.69066 177.214 5.43385 179.026 5.43385C180.912 5.39688 182.762 6.87548 182.762 11.0895Z" fill="#202020"/>
<path d="M196.559 14.8969C196.3 15.9319 194.228 18.8521 190.641 18.8521C186.905 18.8521 183.946 15.858 183.946 12.1245C183.946 8.53891 186.72 5.43385 190.973 5.43385C195.005 5.43385 196.781 7.98444 196.781 9.72179C196.781 13.6031 192.268 14.0467 189.05 13.5292C189.901 16.0058 193.193 16.2276 196.189 14.5642C196.3 14.4903 196.411 14.4533 196.522 14.5272C196.559 14.5642 196.633 14.6751 196.559 14.8969ZM188.791 11.3113C190.973 11.4961 192.083 10.6829 192.083 9.35214C192.083 8.68677 191.528 8.1323 190.788 8.16926C190.788 8.16926 190.788 8.20623 190.752 8.20623H190.678C190.493 8.24319 190.271 8.31712 190.086 8.42802C189.272 8.94553 188.902 10.1284 188.791 11.3113Z" fill="#202020"/>
<path d="M199 5.0642C199 5.84046 198.371 6.46887 197.557 6.46887C196.744 6.46887 196.115 5.84046 196.115 5.0642C196.115 4.28794 196.744 3.65953 197.557 3.65953C198.371 3.65953 199 4.28794 199 5.0642ZM196.485 5.0642C196.485 5.6926 196.929 6.17315 197.594 6.17315C198.223 6.17315 198.667 5.6926 198.667 5.0642C198.667 4.4358 198.223 3.91829 197.594 3.91829C196.929 3.91829 196.485 4.4358 196.485 5.0642ZM197.335 5.8035H197.003V4.39883C197.114 4.36187 197.299 4.36187 197.557 4.36187C197.816 4.36187 197.927 4.39883 198.038 4.47276C198.112 4.54669 198.186 4.65758 198.186 4.76848C198.186 4.91634 198.075 5.02723 197.89 5.10116C198.038 5.13813 198.112 5.24902 198.149 5.43385C198.186 5.65564 198.223 5.72957 198.26 5.76653H197.89C197.853 5.72957 197.816 5.58171 197.779 5.43385C197.742 5.28599 197.668 5.21206 197.483 5.21206H197.335V5.8035ZM197.335 4.99027H197.483C197.668 4.99027 197.816 4.91634 197.816 4.76848C197.816 4.65758 197.705 4.54669 197.52 4.54669C197.446 4.54669 197.372 4.54669 197.335 4.54669V4.99027Z" fill="#202020"/>
<path d="M165.266 4.58366C166.857 4.58366 168.151 3.5856 168.151 2.29183C168.151 1.03502 166.857 0 165.266 0C163.676 0 162.418 1.03502 162.418 2.29183C162.418 3.5856 163.676 4.58366 165.266 4.58366Z" fill="#202020"/>
<path d="M164.896 5.24902C164.009 5.24902 162.825 5.72957 161.419 5.76653H158.312C158.312 3.6965 158.275 1.95914 158.275 1.95914C158.312 1.81128 158.164 1.84825 158.164 1.84825L153.43 3.77043C153.43 3.77043 153.319 3.80739 153.319 3.91829V5.8035H151.839V8.13229H153.319V15.5623C153.467 16.8191 154.096 17.7432 154.983 18.2607C155.612 18.6303 156.389 18.8152 157.166 18.8152C158.941 18.8152 160.791 17.891 161.456 16.5603C161.641 16.2276 161.567 15.9319 161.123 15.9319C160.162 15.9319 158.645 16.3755 158.312 14.3794C158.275 14.1206 158.275 13.8988 158.275 13.6031V8.13229H162.566C163.343 8.16926 163.343 9.5 163.343 10.7568C163.343 12.4572 163.158 18.0759 163.158 18.0759C163.158 18.1868 163.269 18.1868 163.269 18.1868H168.188C168.188 18.1868 168.299 18.1498 168.299 18.0389V8.98249C168.336 6.69066 166.894 5.24902 164.896 5.24902Z" fill="#202020"/>
<path d="M151.654 14.8969C151.358 15.9319 149.546 18.8521 145.921 18.8521C142.185 18.8521 139.189 15.858 139.189 12.1245C139.189 8.53891 141.963 5.58171 145.736 5.43385C148.51 5.43385 151.247 6.5428 151.247 8.8716C151.284 10.0545 150.323 11.3483 148.843 11.3483C148.029 11.3483 147.216 11.0895 147.105 10.9416C146.994 10.7198 147.068 10.4241 147.068 9.94358C147.068 8.94553 146.587 8.24319 145.884 8.24319C144.552 8.24319 143.924 10.3502 144.072 12.1615C144.478 16.5603 148.658 16.0798 151.173 14.5642C151.284 14.4903 151.432 14.4533 151.506 14.5272C151.654 14.5642 151.691 14.6751 151.654 14.8969Z" fill="#202020"/>
<path d="M42.3893 4.73152C43.9798 4.73152 45.2744 3.73346 45.2744 2.43969C45.2744 1.18288 43.9798 0.147858 42.3893 0.147858C40.7988 0.147858 39.5411 1.18288 39.5411 2.43969C39.5411 3.73346 40.7988 4.73152 42.3893 4.73152Z" fill="#202020"/>
<path d="M42.0193 5.39689C41.1316 5.39689 39.985 5.9144 38.5424 5.9144H38.4684H35.4353C35.4353 3.84436 35.3983 2.10701 35.3983 2.10701C35.4353 1.95915 35.2874 1.99611 35.2874 1.99611L30.5528 3.91829C30.5528 3.91829 30.4418 3.95526 30.4418 4.06615V5.95136H28.9623V8.24319H30.4418V15.6732C30.5898 16.93 31.2186 17.8541 32.1063 18.3716C32.7351 18.7412 33.5119 18.9261 34.2887 18.9261C36.0641 18.9261 37.9136 18.0019 38.5794 16.6712C38.7643 16.3385 38.6903 16.0428 38.2465 16.0428C37.2848 16.0428 35.7682 16.4864 35.4353 14.4903C35.3983 14.2315 35.3983 14.0097 35.3983 13.714V8.28016H39.689C40.3918 8.31712 40.4658 9.64786 40.4658 10.9047C40.4658 12.6051 40.2809 18.2237 40.2809 18.2237C40.2809 18.3346 40.3918 18.3346 40.3918 18.3346H45.3113C45.3113 18.3346 45.4223 18.2977 45.4223 18.1868V9.13035C45.4593 6.83852 44.0167 5.39689 42.0193 5.39689Z" fill="#202020"/>
<path d="M97.9464 15.7101C99.1301 17.5953 101.275 18.8152 103.828 18.8152C107.859 18.8152 110.708 15.821 110.708 12.1245C110.708 8.42802 107.785 5.43385 103.828 5.43385C99.8699 5.43385 96.9108 8.42802 96.9108 12.1245C96.9108 12.8638 97.0217 13.5661 97.2437 14.2315L97.9464 15.7101ZM103.828 16.0428C102.385 16.0428 101.793 14.1946 101.793 12.1245C101.793 10.0175 102.385 8.20623 103.828 8.20623C105.27 8.20623 105.862 10.0175 105.862 12.1245C105.899 14.3054 105.307 16.0428 103.828 16.0428Z" fill="#202020"/>
<path d="M96.356 14.0097C96.134 14.9708 94.5435 18.7412 89.4391 18.8521C84.5565 18.963 80.8577 14.5272 80.8577 9.42607C80.8577 4.50973 84.3346 0.184822 89.4761 0.184822C93.3599 0.147857 96.0601 2.03307 96.0601 4.69455C96.0601 5.98832 95.0984 7.50389 93.3229 7.50389C92.2502 7.50389 91.3625 7.09727 91.4365 6.61673C91.6584 5.02723 91.2515 3.28988 89.624 3.28988C87.3677 3.28988 86.221 7.1712 86.5539 9.64786C87.3307 16.0058 92.953 16.1907 95.9861 13.4553C96.4669 13.0117 96.5039 13.4183 96.356 14.0097Z" fill="#202020"/>
<path d="M28.7774 15.0447C28.4815 16.0798 26.632 19 23.0441 19C19.3082 19 16.3121 16.0058 16.3121 12.2724C16.3121 8.68677 19.0863 5.72957 22.8592 5.58171C25.6333 5.58171 28.3705 6.69066 28.3705 9.01945C28.4075 10.2023 27.4458 11.4961 25.9662 11.4961C25.1525 11.4961 24.3387 11.2374 24.2277 11.0895C24.1168 10.8677 24.1908 10.572 24.1908 10.0914C24.1908 9.09338 23.7099 8.39105 23.0071 8.39105C21.6755 8.39105 21.0467 10.4981 21.1947 12.3093C21.6015 16.7082 25.7813 16.2276 28.2965 14.7121C28.4075 14.6381 28.5554 14.6012 28.6294 14.6751C28.7774 14.749 28.8144 14.823 28.7774 15.0447Z" fill="#202020"/>
</svg>
