<svg xmlns="http://www.w3.org/2000/svg" width="190.6526" height="18.2178" viewBox="0 0 190.6526 18.2178"><defs><style>.cls-1{fill:#fff;}</style></defs><title>Asset 4</title><g id="Layer_2" data-name="Layer 2"><g id="Laag_1" data-name="Laag 1"><path class="cls-1" d="M9.1106,11.76,7.7186,4.9082c-.4244,1.7256-.9205,4.7-1.3687,6.8516Zm6.8238,5.8037H10.5989a.1465.1465,0,0,1-.1416-.1143l-.5884-2.5039H5.6878c-.2837,1.4864-.519,2.5039-.519,2.5039a.188.188,0,0,1-.1656.1143H.0706s-.1186,0-.0483-.1143c0,0,4.061-12.7041,4.061-12.7275.9678-2.48-.3081-2.5254-.1177-3.0684C4.27.7334,5.9715.0235,7.34.0235c1.7256,0,3.4727,1.1318,4.3921,3.7089.9927,2.7872,4.2754,13.7168,4.2754,13.7168a.0751.0751,0,0,1-.0727.1143"/><path class="cls-1" d="M57.3211,10.6455c0,2.1514-.9429,7.44-6.4,7.44h-.14c-2.7847,0-5.69-1.5567-5.69-5.24h.023V5.8067a.12.12,0,0,1,.0947-.1133h4.5571a.1314.1314,0,0,1,.0947.1377v7.27c0,1.5381.1871,2.2685.9668,2.2685.9942,0,2.0547-1.038,2.0547-3.7285,0-4.205-2.0547-4.2959-2.0547-4.7929,0-.45,1.1333-1.6748,2.8809-1.6748,1.8179,0,3.6128,1.415,3.6128,5.4716"/><path class="cls-1" d="M63.2063,10.86c2.1.1894,3.1392-.5879,3.1392-1.8643A1.1356,1.1356,0,0,0,65.094,7.8643a.0221.0221,0,0,1-.0244.0215H65a1.5121,1.5121,0,0,0-.5679.2138A3.518,3.518,0,0,0,63.2063,10.86m7.4126,3.4238a6.1811,6.1811,0,0,1-5.6669,3.7774,6.4379,6.4379,0,1,1,.3061-12.8692c3.8731,0,5.5508,2.4336,5.5508,4.1113,0,3.7071-4.3228,4.1543-7.4151,3.6348.8262,2.3594,3.9683,2.6006,6.8453.99a.2566.2566,0,0,1,.3086-.0214c.0952.0693.142.166.0712.3769"/><path class="cls-1" d="M107.1849.5908h4.7241a.0908.0908,0,0,1,.0923.1182s.0254,10.4805.0254,12.1094c0,3.7588,1.6049,2.956,1.3921,3.59a3.6037,3.6037,0,0,1-3.0455,1.6768,3.2655,3.2655,0,0,1-3.3061-3.5869V.709a.1154.1154,0,0,1,.1177-.1182"/><path class="cls-1" d="M114.4007.5908h4.72a.094.094,0,0,1,.0967.1182s.0225,10.4805.0225,12.1094c0,3.7588,1.6064,2.956,1.394,3.59a3.6011,3.6011,0,0,1-3.0474,1.6768,3.2649,3.2649,0,0,1-3.3017-3.5869V.709a.1144.1144,0,0,1,.1162-.1182"/><path class="cls-1" d="M125.2732,10.86c2.1011.1894,3.1392-.5879,3.1392-1.8643a1.1361,1.1361,0,0,0-1.25-1.1318.0215.0215,0,0,1-.0229.0215h-.0713A1.53,1.53,0,0,0,126.5,8.1a3.5075,3.5075,0,0,0-1.2266,2.7608m7.4151,3.4238a6.187,6.187,0,0,1-5.667,3.7774,6.4379,6.4379,0,1,1,.3047-12.8692c3.8735,0,5.5493,2.4336,5.5493,4.1113,0,3.7071-4.32,4.1543-7.4121,3.6348.8247,2.3594,3.9653,2.6006,6.8467.99a.2521.2521,0,0,1,.3056-.0214c.0943.0693.1441.166.0728.3769"/><path class="cls-1" d="M175.1155,10.6455c0,2.1514-.9433,7.44-6.3984,7.44h-.1426c-2.7832,0-5.6855-1.5567-5.6855-5.24h.0195V5.8067a.12.12,0,0,1,.0937-.1133h4.5586a.1311.1311,0,0,1,.0938.1377v7.27c0,1.5381.1894,2.2685.9687,2.2685.9922,0,2.0528-1.038,2.0528-3.7285,0-4.205-2.0528-4.2959-2.0528-4.7929,0-.45,1.1329-1.6748,2.8809-1.6748,1.8164,0,3.6113,1.415,3.6113,5.4716"/><path class="cls-1" d="M180.889,10.86c2.1035.1894,3.1406-.5879,3.1406-1.8643a1.1362,1.1362,0,0,0-1.25-1.1318.0217.0217,0,0,1-.0234.0215h-.07a1.5193,1.5193,0,0,0-.5683.2138A3.5115,3.5115,0,0,0,180.889,10.86m7.414,3.4238a6.1839,6.1839,0,0,1-5.666,3.7774,6.4379,6.4379,0,1,1,.3067-12.8692c3.871,0,5.5488,2.4336,5.5488,4.1113,0,3.7071-4.3223,4.1543-7.4141,3.6348.8262,2.3594,3.9668,2.6006,6.8457.99a.2537.2537,0,0,1,.3067-.0214c.0976.0693.1425.166.0722.3769"/><path class="cls-1" d="M189.0726,4.7813h.1445c.1719,0,.3125-.0537.3125-.1924,0-.1211-.09-.2051-.2852-.2051a.684.684,0,0,0-.1718.0176Zm-.01.7666h-.3086V4.2022a2.71,2.71,0,0,1,.5137-.0391.84.84,0,0,1,.4668.0967.3683.3683,0,0,1,.1289.2959.3377.3377,0,0,1-.2754.31v.0185a.3874.3874,0,0,1,.2441.3262,1.0276,1.0276,0,0,0,.0977.3379h-.336a1.2768,1.2768,0,0,1-.1054-.3321c-.0235-.1445-.1074-.2109-.2774-.2109h-.1484Zm-.8281-.7061a1.0426,1.0426,0,0,0,1.0488,1.0742,1.0284,1.0284,0,0,0,1.0215-1.0683,1.0359,1.0359,0,1,0-2.07-.0059m2.4179,0A1.38,1.38,0,1,1,189.2757,3.5a1.348,1.348,0,0,1,1.3769,1.3418"/><path class="cls-1" d="M158.3362,4.39a2.527,2.527,0,0,0,2.7618-2.1934,2.8223,2.8223,0,0,0-5.504,0A2.505,2.505,0,0,0,158.3362,4.39"/><path class="cls-1" d="M157.9769,5.0293c-.856,0-1.9654.4492-3.3355.4883l-2.9766.0147c0-1.9991-.0253-3.6436-.0253-3.6436.0253-.1426-.0938-.1172-.0938-.1172L147.013,3.61a.1517.1517,0,0,0-.1187.1455l.0044,1.8047-1.415.0049V7.78h1.418l.0151,7.1436a3.3483,3.3483,0,0,0,1.584,2.5947,4.4741,4.4741,0,0,0,2.1006.543,4.7205,4.7205,0,0,0,4.1093-2.1446c.1661-.3115.1167-.6191-.3086-.6191-.9223,0-2.3842.4258-2.6918-1.4844a7.1311,7.1311,0,0,1-.0455-.7568V7.78h4.12c.7485.0176.7329,1.3242.7329,2.5127,0,1.6318-.19,7.0146-.19,7.0146,0,.0928.1182.12.1182.12h4.7222a.1441.1441,0,0,0,.0957-.1446V8.6182a3.2531,3.2531,0,0,0-3.2871-3.5889"/><path class="cls-1" d="M145.282,14.2842a5.8916,5.8916,0,0,1-5.4785,3.7774,6.4359,6.4359,0,0,1-.19-12.8692c2.6445,0,5.29,1.0645,5.29,3.3057a2.3329,2.3329,0,0,1-2.2915,2.3623,2.99,2.99,0,0,1-1.6513-.4014c-.1177-.2119-.0245-.4951-.0245-.9687,0-.9688-.4716-1.6289-1.1323-1.6289-1.2764,0-1.8906,2.0068-1.7246,3.7558.3789,4.2236,4.3926,3.7529,6.8,2.3115a.294.294,0,0,1,.333-.0214c.07.0693.1162.166.07.3769"/><path class="cls-1" d="M40.6146,4.5342a2.5253,2.5253,0,0,0,2.7617-2.1963A2.5434,2.5434,0,0,0,40.6146.1416a2.5194,2.5194,0,0,0-2.7378,2.1963,2.5016,2.5016,0,0,0,2.7378,2.1963"/><path class="cls-1" d="M40.26,5.1739c-.8579,0-1.9561.4765-3.3379.4824L36.8523,5.65l-2.9082.0244c0-2.0009-.0239-3.6445-.0239-3.6445.0239-.1416-.0932-.1211-.0932-.1211L29.2942,3.7559a.1442.1442,0,0,0-.1177.1426l.0015,1.8027-1.4116.01V7.9248h1.4175l.0131,7.1377A3.3643,3.3643,0,0,0,30.78,17.6631a4.4622,4.4622,0,0,0,2.1016.54A4.7151,4.7151,0,0,0,36.99,16.0576c.166-.3066.1191-.6152-.3057-.6152-.92,0-2.3867.4229-2.6909-1.4863a7.0658,7.0658,0,0,1-.0489-.7578V7.9248h4.1211c.6729.0186.7315,1.3223.7315,2.5108,0,1.6318-.1865,7.0136-.1865,7.0136,0,.0938.1142.1143.1142.1143h4.7241a.13.13,0,0,0,.0938-.1357V8.7569A3.2454,3.2454,0,0,0,40.26,5.1739"/><path class="cls-1" d="M99.4876,15.3828c-1.3726,0-1.9639-1.7714-1.9639-3.7529,0-2.0332.5684-3.7558,1.9639-3.7558,1.3682,0,1.9575,1.7226,1.9575,3.7558,0,2.0752-.543,3.7529-1.9575,3.7529m-5.6445-.3086a6.56,6.56,0,0,0,5.6445,2.9776A6.427,6.427,0,1,0,92.8748,11.63a6.2542,6.2542,0,0,0,.3062,2.0059"/><path class="cls-1" d="M92.3182,13.4219A6.6154,6.6154,0,0,1,85.7068,18.05c-4.6743.0967-8.2387-4.1572-8.2387-9.0205,0-4.6972,3.3276-8.8506,8.2632-8.876,3.7075-.0478,6.3046,1.7686,6.3046,4.32a2.6362,2.6362,0,0,1-2.6211,2.69c-1.039,0-1.8662-.3789-1.8178-.85.2129-1.5332-.166-3.1856-1.7466-3.1856-2.148,0-3.2612,3.7041-2.9522,6.09.7559,6.0908,6.1153,6.2812,9.0445,3.6592.47-.4014.519-.0235.3755.5439"/><path class="cls-1" d="M27.5608,14.4414a5.89,5.89,0,0,1-5.4766,3.7764,6.4358,6.4358,0,0,1-.1889-12.8691c2.6445,0,5.2886,1.0615,5.2886,3.3056a2.3321,2.3321,0,0,1-2.29,2.3594,3.0685,3.0685,0,0,1-1.6533-.3984c-.1177-.2168-.0239-.4971-.0239-.9707,0-.9649-.4707-1.6289-1.1329-1.6289-1.2748,0-1.8891,2.0087-1.7231,3.7529.3774,4.2285,4.3926,3.7578,6.8,2.3164a.2847.2847,0,0,1,.33-.0234.3637.3637,0,0,1,.0693.38"/></g></g></svg>